<svg width="18" height="19" viewBox="0 0 18 19" fill="none" xmlns="http://www.w3.org/2000/svg">
<g clip-path="url(#clip0_1_810)">
<path d="M0 1.03999C0 0.898412 0.0561921 0.762631 0.156215 0.662519C0.256237 0.562407 0.391897 0.506165 0.53335 0.506165H2.1334C2.25237 0.506197 2.36791 0.546042 2.46166 0.619362C2.5554 0.692682 2.62196 0.795268 2.65075 0.910805L3.08276 2.64147H15.4671C15.5455 2.64155 15.6228 2.65888 15.6937 2.69224C15.7645 2.7256 15.8272 2.77418 15.8772 2.83451C15.9272 2.89484 15.9633 2.96545 15.9829 3.04133C16.0026 3.1172 16.0053 3.19648 15.9909 3.27352L14.3908 11.8148C14.368 11.9371 14.3031 12.0476 14.2075 12.1271C14.1118 12.2067 13.9914 12.2502 13.8671 12.2504H4.2668C4.14246 12.2502 4.02206 12.2067 3.92643 12.1271C3.83079 12.0476 3.76593 11.9371 3.74305 11.8148L2.14407 3.28954L1.71739 1.57382H0.53335C0.391897 1.57382 0.256237 1.51758 0.156215 1.41746C0.0561921 1.31735 0 1.18157 0 1.03999ZM3.3089 3.70913L4.70948 11.1827H13.4244L14.825 3.70913H3.3089ZM5.3335 12.2504C4.76769 12.2504 4.22505 12.4753 3.82496 12.8758C3.42487 13.2762 3.2001 13.8194 3.2001 14.3857C3.2001 14.952 3.42487 15.4951 3.82496 15.8956C4.22505 16.296 4.76769 16.521 5.3335 16.521C5.89931 16.521 6.44195 16.296 6.84204 15.8956C7.24213 15.4951 7.4669 14.952 7.4669 14.3857C7.4669 13.8194 7.24213 13.2762 6.84204 12.8758C6.44195 12.4753 5.89931 12.2504 5.3335 12.2504ZM12.8004 12.2504C12.2346 12.2504 11.6919 12.4753 11.2919 12.8758C10.8918 13.2762 10.667 13.8194 10.667 14.3857C10.667 14.952 10.8918 15.4951 11.2919 15.8956C11.6919 16.296 12.2346 16.521 12.8004 16.521C13.3662 16.521 13.9088 16.296 14.3089 15.8956C14.709 15.4951 14.9338 14.952 14.9338 14.3857C14.9338 13.8194 14.709 13.2762 14.3089 12.8758C13.9088 12.4753 13.3662 12.2504 12.8004 12.2504ZM5.3335 13.318C5.6164 13.318 5.88772 13.4305 6.08777 13.6307C6.28781 13.8309 6.4002 14.1025 6.4002 14.3857C6.4002 14.6688 6.28781 14.9404 6.08777 15.1406C5.88772 15.3408 5.6164 15.4533 5.3335 15.4533C5.05059 15.4533 4.77927 15.3408 4.57923 15.1406C4.37918 14.9404 4.2668 14.6688 4.2668 14.3857C4.2668 14.1025 4.37918 13.8309 4.57923 13.6307C4.77927 13.4305 5.05059 13.318 5.3335 13.318ZM12.8004 13.318C13.0833 13.318 13.3546 13.4305 13.5547 13.6307C13.7547 13.8309 13.8671 14.1025 13.8671 14.3857C13.8671 14.6688 13.7547 14.9404 13.5547 15.1406C13.3546 15.3408 13.0833 15.4533 12.8004 15.4533C12.5175 15.4533 12.2462 15.3408 12.0461 15.1406C11.8461 14.9404 11.7337 14.6688 11.7337 14.3857C11.7337 14.1025 11.8461 13.8309 12.0461 13.6307C12.2462 13.4305 12.5175 13.318 12.8004 13.318Z" fill="white"/>
</g>
<defs>
<clipPath id="clip0_1_810">
<rect width="18" height="18.2641" fill="white" transform="translate(0 0.000427246)"/>
</clipPath>
</defs>
</svg>
