<svg xmlns="http://www.w3.org/2000/svg" width="15" height="10" fill="fill-blue-500">
  <path fill="#fff"
    d="M12.698.83A13.73 13.73 0 0 0 9.645 0a.053.053 0 0 0-.028.004.045.045 0 0 0-.02.017 7.128 7.128 0 0 0-.381.683 13.049 13.049 0 0 0-3.43 0A6.467 6.467 0 0 0 5.4.021a.046.046 0 0 0-.02-.017.054.054 0 0 0-.029-.003C4.297.16 3.271.438 2.298.83a.037.037 0 0 0-.02.014C.334 3.385-.2 5.864.062 8.311c.001.012.01.023.02.03a13.205 13.205 0 0 0 3.745 1.657c.01.003.02.003.03 0a.047.047 0 0 0 .022-.015 7.71 7.71 0 0 0 .767-1.09.037.037 0 0 0 .005-.026.04.04 0 0 0-.014-.023.05.05 0 0 0-.017-.009 8.896 8.896 0 0 1-1.17-.487.043.043 0 0 1-.022-.024.036.036 0 0 1 .003-.03.043.043 0 0 1 .014-.016c.08-.052.158-.106.233-.16a.053.053 0 0 1 .048-.006c2.455.98 5.113.98 7.538 0a.055.055 0 0 1 .05.006c.075.054.153.108.232.16.007.004.012.01.015.016a.037.037 0 0 1-.002.04.046.046 0 0 1-.016.014c-.374.19-.766.353-1.171.487a.048.048 0 0 0-.018.01.038.038 0 0 0-.014.032l.006.016c.225.381.483.745.766 1.09a.047.047 0 0 0 .024.015c.009.003.02.003.029 0a13.166 13.166 0 0 0 3.75-1.656.042.042 0 0 0 .014-.013.036.036 0 0 0 .006-.018c.313-2.83-.524-5.287-2.218-7.466a.027.027 0 0 0-.007-.01.032.032 0 0 0-.012-.005ZM5.013 6.82c-.74 0-1.348-.593-1.348-1.32 0-.73.597-1.323 1.348-1.323.756 0 1.36.598 1.348 1.322 0 .728-.597 1.322-1.348 1.322Zm4.984 0c-.74 0-1.348-.593-1.348-1.32 0-.73.597-1.323 1.348-1.323.756 0 1.36.598 1.348 1.322 0 .728-.592 1.322-1.348 1.322Z" />
</svg>