<svg width="18" height="18" viewBox="0 0 18 18" fill="none" xmlns="http://www.w3.org/2000/svg">
<path d="M9.99998 4.99999C12.103 4.99999 13 5.89699 13 7.99999H15C15 4.77499 13.225 2.99999 9.99998 2.99999V4.99999ZM13.422 10.443C13.2298 10.2683 12.9773 10.1752 12.7178 10.1832C12.4582 10.1912 12.212 10.2998 12.031 10.486L9.63798 12.947C9.06198 12.837 7.90398 12.476 6.71198 11.287C5.51998 10.094 5.15898 8.93299 5.05198 8.361L7.51098 5.96699C7.69739 5.78612 7.80611 5.53982 7.81414 5.2802C7.82216 5.02059 7.72886 4.76804 7.55398 4.57599L3.85898 0.512995C3.68402 0.320352 3.44086 0.203499 3.18113 0.187255C2.9214 0.17101 2.66557 0.256653 2.46798 0.425995L0.297977 2.28699C0.125088 2.46051 0.0218963 2.69145 0.00797679 2.93599C-0.00702321 3.18599 -0.293023 9.108 4.29898 13.702C8.30498 17.707 13.323 18 14.705 18C14.907 18 15.031 17.994 15.064 17.992C15.3085 17.9783 15.5393 17.8747 15.712 17.701L17.572 15.53C17.7414 15.3325 17.8273 15.0768 17.8112 14.817C17.7951 14.5573 17.6785 14.3141 17.486 14.139L13.422 10.443Z" fill="white"/>
</svg>
